<svg xmlns="http://www.w3.org/2000/svg" viewBox="0 0 135 40"><defs><style>.cls-1{fill:#a6a6a6;}.cls-2{fill:#fff;}</style></defs><title>Asset 3</title><g id="Layer_2" data-name="Layer 2"><g id="artwork"><path class="cls-1" d="M130.2,40H4.73A4.74,4.74,0,0,1,0,35.27V4.73A4.73,4.73,0,0,1,4.73,0H130.2A4.8,4.8,0,0,1,135,4.73V35.27A4.8,4.8,0,0,1,130.2,40Z"/><path d="M134,35.27a3.83,3.83,0,0,1-3.83,3.83H4.73A3.83,3.83,0,0,1,.89,35.27V4.72A3.84,3.84,0,0,1,4.73.89H130.2A3.83,3.83,0,0,1,134,4.72V35.27Z"/><path class="cls-2" d="M30.13,19.78a5.8,5.8,0,0,1,2.76-4.86,5.94,5.94,0,0,0-4.68-2.53c-2-.21-3.87,1.18-4.88,1.18s-2.57-1.16-4.23-1.12a6.23,6.23,0,0,0-5.24,3.2c-2.27,3.92-.58,9.69,1.6,12.86,1.09,1.55,2.36,3.29,4,3.23s2.23-1,4.19-1,2.51,1,4.21,1,2.84-1.56,3.89-3.13a12.83,12.83,0,0,0,1.78-3.62A5.6,5.6,0,0,1,30.13,19.78Z"/><path class="cls-2" d="M26.93,10.31a5.71,5.71,0,0,0,1.31-4.09,5.81,5.81,0,0,0-3.76,1.94,5.43,5.43,0,0,0-1.34,3.94A4.8,4.8,0,0,0,26.93,10.31Z"/><path class="cls-2" d="M53.65,31.5H51.37l-1.24-3.91H45.81L44.62,31.5H42.41L46.69,18.2h2.65ZM49.76,26l-1.12-3.48Q48.45,21.95,48,20h0q-.2.85-.63,2.51L46.18,26Z"/><path class="cls-2" d="M64.66,26.59a5.45,5.45,0,0,1-1.32,3.87,3.87,3.87,0,0,1-2.94,1.26,2.94,2.94,0,0,1-2.72-1.36h0v5.05H55.5V25.07q0-1.54-.08-3.16H57.3l.12,1.52h0a3.79,3.79,0,0,1,6.07-.38A5.29,5.29,0,0,1,64.66,26.59Zm-2.17.08a4,4,0,0,0-.63-2.31A2.18,2.18,0,0,0,60,23.41a2.22,2.22,0,0,0-1.43.52,2.43,2.43,0,0,0-.84,1.37,2.79,2.79,0,0,0-.1.65v1.6a2.56,2.56,0,0,0,.64,1.77,2.13,2.13,0,0,0,1.67.72,2.18,2.18,0,0,0,1.88-.93A4.08,4.08,0,0,0,62.49,26.67Z"/><path class="cls-2" d="M75.7,26.59a5.45,5.45,0,0,1-1.32,3.87,3.86,3.86,0,0,1-2.94,1.26,2.94,2.94,0,0,1-2.72-1.36h0v5.05H66.54V25.07q0-1.54-.08-3.16h1.88l.12,1.52h0a3.79,3.79,0,0,1,6.07-.38A5.3,5.3,0,0,1,75.7,26.59Zm-2.17.08a4,4,0,0,0-.63-2.31A2.18,2.18,0,0,0,71,23.41a2.22,2.22,0,0,0-1.43.52,2.42,2.42,0,0,0-.84,1.37,2.85,2.85,0,0,0-.1.65v1.6a2.57,2.57,0,0,0,.64,1.77A2.13,2.13,0,0,0,71,30a2.18,2.18,0,0,0,1.88-.93A4.08,4.08,0,0,0,73.53,26.67Z"/><path class="cls-2" d="M88,27.77a3.55,3.55,0,0,1-1.18,2.76,5.24,5.24,0,0,1-3.62,1.17,6.35,6.35,0,0,1-3.45-.83l.49-1.78a5.84,5.84,0,0,0,3.08.85,2.91,2.91,0,0,0,1.88-.54,1.78,1.78,0,0,0,.67-1.45,1.85,1.85,0,0,0-.55-1.36,5.14,5.14,0,0,0-1.84-1Q80,24.25,80,21.74A3.38,3.38,0,0,1,81.25,19a4.83,4.83,0,0,1,3.26-1,6.46,6.46,0,0,1,3,.63L87,20.37a5.24,5.24,0,0,0-2.55-.61,2.58,2.58,0,0,0-1.76.55,1.58,1.58,0,0,0-.53,1.2,1.63,1.63,0,0,0,.61,1.3,6.91,6.91,0,0,0,1.94,1,6.57,6.57,0,0,1,2.53,1.62A3.38,3.38,0,0,1,88,27.77Z"/><path class="cls-2" d="M95.09,23.51H92.74v4.66q0,1.78,1.24,1.78a3.79,3.79,0,0,0,.95-.1L95,31.46a4.83,4.83,0,0,1-1.66.24,2.56,2.56,0,0,1-2-.77,3.78,3.78,0,0,1-.71-2.59V23.51h-1.4v-1.6h1.4V20.15l2.09-.63v2.39h2.35Z"/><path class="cls-2" d="M105.69,26.63a5.26,5.26,0,0,1-1.26,3.63,4.51,4.51,0,0,1-3.52,1.46,4.29,4.29,0,0,1-3.36-1.4,5.1,5.1,0,0,1-1.25-3.53,5.21,5.21,0,0,1,1.29-3.65,4.47,4.47,0,0,1,3.48-1.42,4.38,4.38,0,0,1,3.4,1.4A5,5,0,0,1,105.69,26.63Zm-2.21.07a4.32,4.32,0,0,0-.57-2.28A2.11,2.11,0,0,0,101,23.27a2.14,2.14,0,0,0-2,1.15,4.4,4.4,0,0,0-.57,2.32A4.31,4.31,0,0,0,99,29a2.18,2.18,0,0,0,3.85,0A4.33,4.33,0,0,0,103.48,26.7Z"/><path class="cls-2" d="M112.62,23.78a3.7,3.7,0,0,0-.67-.06,2,2,0,0,0-1.74.85,3.19,3.19,0,0,0-.53,1.9v5h-2.13l0-6.57q0-1.66-.08-3h1.86l.08,1.84h.06a3.28,3.28,0,0,1,1.07-1.52,2.58,2.58,0,0,1,1.54-.51,3.42,3.42,0,0,1,.53,0Z"/><path class="cls-2" d="M122.16,26.25a5,5,0,0,1-.08,1h-6.4a2.78,2.78,0,0,0,.93,2.17,3.17,3.17,0,0,0,2.09.67,7.07,7.07,0,0,0,2.59-.45l.33,1.48a8,8,0,0,1-3.22.59,4.66,4.66,0,0,1-3.51-1.31,4.85,4.85,0,0,1-1.27-3.52,5.5,5.5,0,0,1,1.19-3.61,4.09,4.09,0,0,1,3.36-1.54,3.58,3.58,0,0,1,3.14,1.54A5.19,5.19,0,0,1,122.16,26.25Zm-2-.55a2.9,2.9,0,0,0-.41-1.64,1.86,1.86,0,0,0-1.7-.89,2,2,0,0,0-1.7.87,3.18,3.18,0,0,0-.63,1.66h4.44Z"/><path class="cls-2" d="M82.57,12.54v-.86h.63a2.64,2.64,0,0,0,.81-.11,1.36,1.36,0,0,0,.57-.34,1.4,1.4,0,0,0,.33-.59A3,3,0,0,0,85,9.78V6.94h.86V9.78a3.65,3.65,0,0,1-.17,1.16,2.28,2.28,0,0,1-.51.87,2.2,2.2,0,0,1-.84.54,3.29,3.29,0,0,1-1.16.19ZM84.64,5l.77-.78.79.79-.78.78Z"/><path class="cls-2" d="M88.36,10H87.5V3.53h.86Z"/><path class="cls-2" d="M102.69,9.16V10h-.21a1.83,1.83,0,0,1-.7-.14,1.59,1.59,0,0,1-.58-.4,1.4,1.4,0,0,1-.53.32,2.75,2.75,0,0,1-.55.13q-.31,0-.72.07l-.92,0h-2l-.79,0L95,9.95a4.35,4.35,0,0,1-.59-.11,1.91,1.91,0,0,1-1-.56A1.61,1.61,0,0,1,93,8.17a3.27,3.27,0,0,1,0-.47c0-.16,0-.3.08-.43S93.2,7,93.23,7l0-.13.82.25c0,.14-.07.26-.09.37s0,.22-.06.35a2.38,2.38,0,0,0,0,.38,1.16,1.16,0,0,0,0,.32.6.6,0,0,0,.12.23.72.72,0,0,0,.22.17,1.71,1.71,0,0,0,.34.13,5.16,5.16,0,0,0,1.15.14l1.57,0h1.28q.54,0,.92,0a4,4,0,0,0,.63-.09,1,1,0,0,0,.38-.17.55.55,0,0,0,.19-.28,1.46,1.46,0,0,0,0-.41V6.94h.86V8.36a.8.8,0,0,0,.08.36.75.75,0,0,0,.19.25.79.79,0,0,0,.27.15,1,1,0,0,0,.3,0ZM96.42,6.53,95.7,5.8l.71-.74.74.74Zm1.74,0-.72-.73.71-.74.74.74Z"/><path class="cls-2" d="M102.58,10V9.16h1.75a3.75,3.75,0,0,0,.82-.07,1.61,1.61,0,0,0,.48-.18.61.61,0,0,0,.23-.24.78.78,0,0,0,.08-.25h-1l-.3,0-.32-.08a1.71,1.71,0,0,1-.31-.13,1.77,1.77,0,0,1-.25-.18,1.2,1.2,0,0,1-.23-.27,1.52,1.52,0,0,1-.17-.38,1.81,1.81,0,0,1-.07-.52,1.94,1.94,0,0,1,.13-.7,1.61,1.61,0,0,1,.91-.92,1.71,1.71,0,0,1,.65-.12,1.59,1.59,0,0,1,.73.17,1.56,1.56,0,0,1,.56.48,2.22,2.22,0,0,1,.36.81,4.64,4.64,0,0,1,.12,1.1v.63a1.72,1.72,0,0,1-.18.8,1.41,1.41,0,0,1-.54.57,3.26,3.26,0,0,1-1.75.39Zm1.57-6.76.77-.78.79.79-.78.78ZM105,5.93a1,1,0,0,0-.31.05.84.84,0,0,0-.28.16.8.8,0,0,0-.21.27.93.93,0,0,0-.08.4.85.85,0,0,0,0,.25.54.54,0,0,0,.08.17.53.53,0,0,0,.1.11l.1.07a1,1,0,0,0,.32.11,2.56,2.56,0,0,0,.45,0h.7a3.58,3.58,0,0,0-.09-.79,1.73,1.73,0,0,0-.23-.55A.71.71,0,0,0,105,5.93Z"/><path class="cls-2" d="M110.25,10a4.1,4.1,0,0,1-.74-.07,1.89,1.89,0,0,1-.53-.18,1,1,0,0,1-.35-.29,1.38,1.38,0,0,1-.2-.41,2.41,2.41,0,0,1-.1-.52q0-.29,0-.65V3.53h.86V7.9q0,.4,0,.64a.72.72,0,0,0,.13.38.55.55,0,0,0,.32.18,3.11,3.11,0,0,0,.6.05Z"/><path class="cls-2" d="M113.28,6.32l0,.15.06.29.08.39c0,.14.05.28.07.43s0,.28.05.42a3,3,0,0,1,0,.35,1.82,1.82,0,0,1-.14.75,1.55,1.55,0,0,1-.37.52,1.51,1.51,0,0,1-.52.31,1.74,1.74,0,0,1-.58.1h-1.88V9.16H112l.19,0a.64.64,0,0,0,.25-.1.69.69,0,0,0,.22-.25.93.93,0,0,0,.09-.45,2.46,2.46,0,0,0,0-.25q0-.15,0-.33c0-.12,0-.24-.06-.36L112.57,7l-.06-.29,0-.19Zm-1.4,5.44-.74.74-.71-.74.72-.73Zm1.74,0-.74.74-.71-.74.72-.73Z"/><path class="cls-2" d="M114.23,12.54v-.86h.63a2.64,2.64,0,0,0,.81-.11,1.36,1.36,0,0,0,.57-.34,1.4,1.4,0,0,0,.33-.59,3,3,0,0,0,.11-.85V6.94h.86V9.78a3.65,3.65,0,0,1-.17,1.16,2.28,2.28,0,0,1-.51.87,2.2,2.2,0,0,1-.84.54,3.29,3.29,0,0,1-1.16.19Z"/><path class="cls-2" d="M120.45,10.09l-.47,0-.46-.06a3.19,3.19,0,0,1-.43-.11,2,2,0,0,1-.37-.17l-.38-.21.43-.75.38.21a1.5,1.5,0,0,0,.39.15,3.41,3.41,0,0,0,.49.08l.52,0a4,4,0,0,0,.49,0,1.79,1.79,0,0,0,.43-.12.41.41,0,0,0,.22-.17.39.39,0,0,0,0-.28,1.71,1.71,0,0,0-.21-.4l-1.65-2.49.73-.47.12.19.15.23.2.3.28.42.38.57.51.76a3.09,3.09,0,0,1,.21.36,1.94,1.94,0,0,1,.14.38,1.42,1.42,0,0,1,0,.38,1,1,0,0,1-.09.38,1.55,1.55,0,0,1-1.32.79l-.34,0Z"/></g></g></svg>