<svg xmlns="http://www.w3.org/2000/svg" viewBox="0 0 135 40"><defs><style>.cls-1{fill:#a6a6a6;}.cls-2{fill:#91b42f;}.cls-3,.cls-4{fill:#fff;}.cls-4{fill-rule:evenodd;}</style></defs><title>Asset 81</title><g id="Layer_2" data-name="Layer 2"><g id="artwork"><path class="cls-1" d="M130.2,40H4.73A4.74,4.74,0,0,1,0,35.27V4.73A4.73,4.73,0,0,1,4.73,0H130.2A4.8,4.8,0,0,1,135,4.73V35.27A4.8,4.8,0,0,1,130.2,40Z"/><path class="cls-2" d="M134.07,35.27a3.83,3.83,0,0,1-3.83,3.83H4.77A3.83,3.83,0,0,1,.93,35.27V4.72A3.84,3.84,0,0,1,4.77.89H130.24a3.83,3.83,0,0,1,3.83,3.84V35.27Z"/><path class="cls-3" d="M83.49,12.54v-.86h.63a2.64,2.64,0,0,0,.81-.11,1.36,1.36,0,0,0,.57-.34,1.4,1.4,0,0,0,.33-.59,3,3,0,0,0,.11-.85V6.94h.86V9.78a3.65,3.65,0,0,1-.17,1.16,2.28,2.28,0,0,1-.51.87,2.2,2.2,0,0,1-.84.54,3.29,3.29,0,0,1-1.16.19ZM85.57,5l.77-.78.79.79-.78.78Z"/><path class="cls-3" d="M89.29,10h-.86V3.53h.86Z"/><path class="cls-3" d="M103.62,9.16V10h-.21a1.83,1.83,0,0,1-.7-.14,1.59,1.59,0,0,1-.58-.4,1.4,1.4,0,0,1-.53.32,2.75,2.75,0,0,1-.55.13q-.31,0-.72.07l-.92,0h-2l-.79,0-.69-.06a4.35,4.35,0,0,1-.59-.11,1.91,1.91,0,0,1-1-.56A1.61,1.61,0,0,1,94,8.17a3.27,3.27,0,0,1,0-.47c0-.16,0-.3.08-.43s.05-.23.08-.32l0-.13.82.25c0,.14-.07.26-.09.37s0,.22-.06.35a2.38,2.38,0,0,0,0,.38,1.16,1.16,0,0,0,0,.32.6.6,0,0,0,.12.23.72.72,0,0,0,.22.17,1.71,1.71,0,0,0,.34.13,5.16,5.16,0,0,0,1.15.14l1.57,0h1.28q.54,0,.92,0a4,4,0,0,0,.63-.09,1,1,0,0,0,.38-.17.55.55,0,0,0,.19-.28,1.46,1.46,0,0,0,0-.41V6.94h.86V8.36a.8.8,0,0,0,.08.36.75.75,0,0,0,.19.25.79.79,0,0,0,.27.15,1,1,0,0,0,.3,0ZM97.34,6.53l-.72-.73.71-.74.74.74Zm1.74,0-.72-.73.71-.74.74.74Z"/><path class="cls-3" d="M103.51,10V9.16h1.75a3.75,3.75,0,0,0,.82-.07,1.61,1.61,0,0,0,.48-.18.61.61,0,0,0,.23-.24.78.78,0,0,0,.08-.25h-1l-.3,0-.32-.08a1.71,1.71,0,0,1-.31-.13,1.77,1.77,0,0,1-.25-.18,1.2,1.2,0,0,1-.23-.27,1.52,1.52,0,0,1-.17-.38,1.81,1.81,0,0,1-.07-.52,1.94,1.94,0,0,1,.13-.7,1.61,1.61,0,0,1,.91-.92,1.71,1.71,0,0,1,.65-.12,1.59,1.59,0,0,1,.73.17,1.56,1.56,0,0,1,.56.48,2.22,2.22,0,0,1,.36.81,4.64,4.64,0,0,1,.12,1.1v.63a1.72,1.72,0,0,1-.18.8,1.41,1.41,0,0,1-.54.57,3.26,3.26,0,0,1-1.75.39Zm1.57-6.76.77-.78.79.79-.78.78ZM106,5.93a1,1,0,0,0-.31.05.84.84,0,0,0-.28.16.8.8,0,0,0-.21.27.93.93,0,0,0-.08.4.85.85,0,0,0,0,.25.54.54,0,0,0,.08.17.53.53,0,0,0,.1.11l.1.07a1,1,0,0,0,.32.11,2.56,2.56,0,0,0,.45,0h.7a3.58,3.58,0,0,0-.09-.79,1.73,1.73,0,0,0-.23-.55A.71.71,0,0,0,106,5.93Z"/><path class="cls-3" d="M111.18,10a4.1,4.1,0,0,1-.74-.07,1.89,1.89,0,0,1-.53-.18,1,1,0,0,1-.35-.29,1.38,1.38,0,0,1-.2-.41,2.41,2.41,0,0,1-.1-.52q0-.29,0-.65V3.53h.86V7.9q0,.4,0,.64a.72.72,0,0,0,.13.38.55.55,0,0,0,.32.18,3.11,3.11,0,0,0,.6.05Z"/><path class="cls-3" d="M114.21,6.32l0,.15.06.29.08.39c0,.14.05.28.07.43s0,.28.05.42a3,3,0,0,1,0,.35,1.82,1.82,0,0,1-.14.75,1.55,1.55,0,0,1-.37.52,1.51,1.51,0,0,1-.52.31,1.74,1.74,0,0,1-.58.1H111V9.16h1.88l.19,0a.64.64,0,0,0,.25-.1.69.69,0,0,0,.22-.25.93.93,0,0,0,.09-.45,2.46,2.46,0,0,0,0-.25q0-.15,0-.33c0-.12,0-.24-.06-.36L113.5,7l-.06-.29,0-.19Zm-1.4,5.44-.74.74-.71-.74.72-.73Zm1.74,0-.74.74-.71-.74.72-.73Z"/><path class="cls-3" d="M115.16,12.54v-.86h.63a2.64,2.64,0,0,0,.81-.11,1.36,1.36,0,0,0,.57-.34,1.4,1.4,0,0,0,.33-.59,3,3,0,0,0,.11-.85V6.94h.86V9.78a3.65,3.65,0,0,1-.17,1.16,2.28,2.28,0,0,1-.51.87,2.2,2.2,0,0,1-.84.54,3.29,3.29,0,0,1-1.16.19Z"/><path class="cls-3" d="M121.37,10.09l-.47,0-.46-.06a3.19,3.19,0,0,1-.43-.11,2,2,0,0,1-.37-.17l-.38-.21.43-.75.38.21a1.5,1.5,0,0,0,.39.15,3.41,3.41,0,0,0,.49.08l.52,0a4,4,0,0,0,.49,0,1.79,1.79,0,0,0,.43-.12.41.41,0,0,0,.22-.17.39.39,0,0,0,0-.28,1.71,1.71,0,0,0-.21-.4l-1.65-2.49.73-.47.12.19.15.23.2.3.28.42.38.57.51.76a3.09,3.09,0,0,1,.21.36,1.94,1.94,0,0,1,.14.38,1.42,1.42,0,0,1,0,.38,1,1,0,0,1-.09.38,1.55,1.55,0,0,1-1.32.79l-.34,0Z"/><path class="cls-4" d="M94.49,32.32a2.25,2.25,0,1,0,.05-4.48h-3.1c-1.06,0-1.22-.3-1.23-1.33V16.77a2.25,2.25,0,1,0-4.48-.08V27.34a4.49,4.49,0,0,0,4.23,5Z"/><path class="cls-4" d="M79,23.37,79,29c0,.87-.16,1-1,1.11H74.53c-2.75-.17-3.23,4.28,0,4.46h4.77a4.47,4.47,0,0,0,4.23-4.35v-6.9A2.22,2.22,0,0,0,79,23.37Z"/><path class="cls-4" d="M72.25,25.51a2.25,2.25,0,1,0,4.49-.09V14.49c0-3-4.46-3.45-4.48.2Z"/><path class="cls-4" d="M65.54,18.88l0,5.64c0,.87-.16,1-1,1.11H61c-2.75-.17-3.23,4.28,0,4.46h4.77A4.47,4.47,0,0,0,70,25.73v-6.9A2.22,2.22,0,0,0,65.54,18.88Z"/><circle class="cls-3" cx="85.69" cy="34.56" r="2.21"/><circle class="cls-3" cx="81.23" cy="16.67" r="2.21"/><path class="cls-3" d="M38,15.32a6.21,6.21,0,0,0-2.5-1.72,16.36,16.36,0,0,0-3.84-.88.5.5,0,0,1-.48-.35c-.14-.38-.31-.75-.48-1.13A12.68,12.68,0,0,0,28,7.15a2.81,2.81,0,0,0-3.83-.26,7.22,7.22,0,0,0-1.45,1.47,18.54,18.54,0,0,0-2.15,3.93.51.51,0,0,1-.46.36,23.49,23.49,0,0,0-2.61.45,7.8,7.8,0,0,0-3.51,1.71A2.39,2.39,0,0,0,13,17c.12.91.19,1.83.36,2.73a40.51,40.51,0,0,0,3.55,10.65,6.54,6.54,0,0,0,1.36,2.07,6.26,6.26,0,0,0,2.85,1.46,18.63,18.63,0,0,0,4,.37,22.26,22.26,0,0,0,5.32-.38A5.34,5.34,0,0,0,34,31.42a38.78,38.78,0,0,0,3.56-9.14A33.59,33.59,0,0,0,38.48,17,2.06,2.06,0,0,0,38,15.32ZM21.42,11.78a15.2,15.2,0,0,1,2.52-4,2.44,2.44,0,0,1,3-.66,5,5,0,0,1,1.68,1.71,19.11,19.11,0,0,1,1.8,3.35c.14.35.13.3-.24.33-.71.06-1-.27-1.33-.9A7.66,7.66,0,0,0,27.2,9.19a1.82,1.82,0,0,0-1.33-.59,2,2,0,0,0-1.45.73,10.76,10.76,0,0,0-1.82,2.74.68.68,0,0,1-.68.43C20.87,12.53,21.07,12.54,21.42,11.78Zm7,.63c-.83-.07-1.66,0-2.48,0s-1.66,0-2.49,0c-.21,0-.31,0-.19-.25a10.34,10.34,0,0,1,1.52-2.33,1.35,1.35,0,0,1,2.26,0,11.11,11.11,0,0,1,1.55,2.39C28.66,12.41,28.54,12.43,28.38,12.42Zm-7.5,3.72a.42.42,0,0,1-.39.32c-1.48.13-2.94.41-4.42.52a2.65,2.65,0,0,1-1.77-.34c-.46-.33-.49-.4-.08-.8a7.06,7.06,0,0,1,3.55-1.9,31.86,31.86,0,0,1,3.83-.53c.2,0,.34,0,.23.26Q21.34,14.9,20.88,16.14Zm8.94.19a46.44,46.44,0,0,0-4.9-.21c-1,0-2,.11-3,.19-.46,0-.49,0-.32-.41.3-.76.61-1.52.9-2.28a.44.44,0,0,1,.46-.31c1-.06,1.91-.06,2.86-.06s2,0,2.93.08a.43.43,0,0,1,.44.33c.28.78.59,1.55.88,2.32C30.22,16.35,30.2,16.36,29.82,16.33Zm7.43.31a2.86,2.86,0,0,1-1.62.34c-1.59-.12-3-.37-4.51-.52a.34.34,0,0,1-.31-.26l-.95-2.55c-.05-.14-.11-.28.14-.25a17.66,17.66,0,0,1,5.31,1.08,5.92,5.92,0,0,1,2,1.51C37.6,16.3,37.58,16.41,37.24,16.64Z"/></g></g></svg>