<svg xmlns="http://www.w3.org/2000/svg" xmlns:xlink="http://www.w3.org/1999/xlink" viewBox="0 0 135 40"><defs><style>.cls-1{fill:#a6a6a6;}.cls-2,.cls-9{fill:#fff;}.cls-3{fill:url(#linear-gradient);}.cls-4{fill:url(#linear-gradient-2);}.cls-5{fill:url(#linear-gradient-3);}.cls-6{fill:url(#linear-gradient-4);}.cls-7{opacity:0.2;}.cls-7,.cls-8,.cls-9{isolation:isolate;}.cls-8{opacity:0.12;}.cls-9{opacity:0.25;}</style><linearGradient id="linear-gradient" x1="21.8" y1="173.29" x2="5.02" y2="156.51" gradientTransform="matrix(1, 0, 0, -1, 0, 182)" gradientUnits="userSpaceOnUse"><stop offset="0" stop-color="#00a0ff"/><stop offset="0.01" stop-color="#00a1ff"/><stop offset="0.26" stop-color="#00beff"/><stop offset="0.51" stop-color="#00d2ff"/><stop offset="0.76" stop-color="#00dfff"/><stop offset="1" stop-color="#00e3ff"/></linearGradient><linearGradient id="linear-gradient-2" x1="33.83" y1="162" x2="9.64" y2="162" gradientTransform="matrix(1, 0, 0, -1, 0, 182)" gradientUnits="userSpaceOnUse"><stop offset="0" stop-color="#ffe000"/><stop offset="0.41" stop-color="#ffbd00"/><stop offset="0.78" stop-color="orange"/><stop offset="1" stop-color="#ff9c00"/></linearGradient><linearGradient id="linear-gradient-3" x1="24.83" y1="159.7" x2="2.07" y2="136.95" gradientTransform="matrix(1, 0, 0, -1, 0, 182)" gradientUnits="userSpaceOnUse"><stop offset="0" stop-color="#ff3a44"/><stop offset="1" stop-color="#c31162"/></linearGradient><linearGradient id="linear-gradient-4" x1="7.3" y1="181.82" x2="17.46" y2="171.66" gradientTransform="matrix(1, 0, 0, -1, 0, 182)" gradientUnits="userSpaceOnUse"><stop offset="0" stop-color="#32a071"/><stop offset="0.07" stop-color="#2da771"/><stop offset="0.48" stop-color="#15cf74"/><stop offset="0.8" stop-color="#06e775"/><stop offset="1" stop-color="#00f076"/></linearGradient></defs><title>Asset 2</title><g id="Layer_2" data-name="Layer 2"><g id="artwork"><rect width="135" height="40" rx="5" ry="5"/><path class="cls-1" d="M130,.8A4.2,4.2,0,0,1,134.2,5V35a4.2,4.2,0,0,1-4.2,4.2H5A4.2,4.2,0,0,1,.8,35V5A4.2,4.2,0,0,1,5,.8H130m0-.8H5A5,5,0,0,0,0,5V35a5,5,0,0,0,5,5H130a5,5,0,0,0,5-5V5a5,5,0,0,0-5-5Z"/><path class="cls-2" d="M68.14,21.75A4.25,4.25,0,1,0,72.41,26,4.19,4.19,0,0,0,68.14,21.75Zm0,6.83A2.58,2.58,0,1,1,70.54,26,2.46,2.46,0,0,1,68.14,28.58Zm-9.31-6.83A4.25,4.25,0,1,0,63.09,26,4.19,4.19,0,0,0,58.82,21.75Zm0,6.83A2.58,2.58,0,1,1,61.22,26,2.46,2.46,0,0,1,58.82,28.58ZM47.74,23.06v1.8h4.32a3.77,3.77,0,0,1-1,2.27,4.42,4.42,0,0,1-3.33,1.32,4.8,4.8,0,0,1,0-9.6A4.6,4.6,0,0,1,51,20.14l1.27-1.27A6.29,6.29,0,0,0,47.74,17a6.61,6.61,0,1,0,0,13.21,6,6,0,0,0,4.61-1.85,6,6,0,0,0,1.56-4.22,5.87,5.87,0,0,0-.1-1.13Zm45.31,1.4a4,4,0,0,0-3.64-2.71,4,4,0,0,0-4,4.25,4.16,4.16,0,0,0,4.22,4.25,4.23,4.23,0,0,0,3.54-1.88l-1.45-1a2.43,2.43,0,0,1-2.09,1.18,2.16,2.16,0,0,1-2.06-1.29l5.69-2.35Zm-5.8,1.42a2.33,2.33,0,0,1,2.22-2.48,1.65,1.65,0,0,1,1.58.9ZM82.63,30H84.5V17.5H82.63Zm-3.06-7.3H79.5a3,3,0,0,0-2.24-1,4.26,4.26,0,0,0,0,8.51,2.9,2.9,0,0,0,2.24-1h.06v.61c0,1.63-.87,2.5-2.27,2.5a2.35,2.35,0,0,1-2.14-1.51l-1.63.68a4.05,4.05,0,0,0,3.77,2.51c2.19,0,4-1.29,4-4.43V22H79.57Zm-2.14,5.88a2.59,2.59,0,0,1,0-5.16A2.4,2.4,0,0,1,79.7,26,2.38,2.38,0,0,1,77.42,28.58ZM101.81,17.5H97.33V30H99.2V25.26h2.61a3.89,3.89,0,1,0,0-7.76Zm0,6H99.2V19.24h2.65a2.14,2.14,0,1,1,0,4.29Zm11.53-1.8a3.5,3.5,0,0,0-3.33,1.91l1.66.69a1.77,1.77,0,0,1,1.7-.92,1.8,1.8,0,0,1,2,1.61v.13a4.13,4.13,0,0,0-1.95-.48c-1.79,0-3.6,1-3.6,2.81a2.89,2.89,0,0,0,3.1,2.75A2.63,2.63,0,0,0,115.32,29h.06v1h1.8V25.19C117.18,23,115.52,21.73,113.39,21.73Zm-.23,6.85c-.61,0-1.46-.31-1.46-1.06,0-1,1.06-1.33,2-1.33a3.32,3.32,0,0,1,1.7.42A2.26,2.26,0,0,1,113.16,28.58ZM123.74,22l-2.14,5.42h-.06L119.32,22h-2l3.33,7.58-1.9,4.21h1.95L125.82,22Zm-16.81,8h1.87V17.5h-1.87Z"/><path class="cls-3" d="M10.44,7.54A2,2,0,0,0,10,8.94V31.06a2,2,0,0,0,.46,1.4l.07.07L22.9,20.15v-.29L10.51,7.47Z"/><path class="cls-4" d="M27,24.28,22.9,20.15v-.29L27,15.72l.09.05L32,18.56c1.4.79,1.4,2.09,0,2.89l-4.89,2.78Z"/><path class="cls-5" d="M27.12,24.23,22.9,20,10.44,32.46a1.63,1.63,0,0,0,2.08.06l14.61-8.3"/><path class="cls-6" d="M27.12,15.78,12.51,7.48a1.63,1.63,0,0,0-2.08.06L22.9,20Z"/><path class="cls-7" d="M27,24.13,12.51,32.38a1.67,1.67,0,0,1-2,0h0l-.07.07h0l.07.07h0a1.66,1.66,0,0,0,2,0l14.61-8.3Z"/><path class="cls-8" d="M10.44,32.32a2,2,0,0,1-.46-1.4v.15a2,2,0,0,0,.46,1.4l.07-.07Z"/><path class="cls-8" d="M32,21.3l-5,2.83.09.09L32,21.44a1.75,1.75,0,0,0,1-1.44h0A1.86,1.86,0,0,1,32,21.3Z"/><path class="cls-9" d="M12.51,7.62,32,18.7a1.86,1.86,0,0,1,1,1.3h0a1.75,1.75,0,0,0-1-1.44L12.51,7.48C11.12,6.68,10,7.34,10,8.94v.15C10,7.49,11.12,6.83,12.51,7.62Z"/><path class="cls-2" d="M86.34,12.54v-.86H87a2.64,2.64,0,0,0,.81-.11,1.36,1.36,0,0,0,.57-.34,1.4,1.4,0,0,0,.33-.59,3,3,0,0,0,.11-.85V6.94h.86V9.78a3.65,3.65,0,0,1-.17,1.16,2.28,2.28,0,0,1-.51.87,2.2,2.2,0,0,1-.84.54,3.29,3.29,0,0,1-1.16.19ZM88.42,5l.77-.78L90,5l-.78.78Z"/><path class="cls-2" d="M92.14,10h-.86V3.53h.86Z"/><path class="cls-2" d="M106.47,9.16V10h-.21a1.83,1.83,0,0,1-.7-.14,1.59,1.59,0,0,1-.58-.4,1.4,1.4,0,0,1-.53.32,2.75,2.75,0,0,1-.55.13q-.31,0-.72.07l-.92,0h-2l-.79,0-.69-.06a4.35,4.35,0,0,1-.59-.11,1.91,1.91,0,0,1-1-.56,1.61,1.61,0,0,1-.37-1.11,3.27,3.27,0,0,1,0-.47c0-.16,0-.3.08-.43S97,7,97,7l0-.13.82.25c0,.14-.07.26-.09.37s0,.22-.06.35a2.38,2.38,0,0,0,0,.38,1.16,1.16,0,0,0,0,.32.6.6,0,0,0,.12.23.72.72,0,0,0,.22.17,1.71,1.71,0,0,0,.34.13,5.16,5.16,0,0,0,1.15.14l1.57,0h1.28q.54,0,.92,0a4,4,0,0,0,.63-.09,1,1,0,0,0,.38-.17.55.55,0,0,0,.19-.28,1.46,1.46,0,0,0,0-.41V6.94h.86V8.36a.8.8,0,0,0,.08.36.75.75,0,0,0,.19.25.79.79,0,0,0,.27.15,1,1,0,0,0,.3,0Zm-6.28-2.64-.72-.73.71-.74.74.74Zm1.74,0-.72-.73.71-.74.74.74Z"/><path class="cls-2" d="M106.36,10V9.16h1.75a3.75,3.75,0,0,0,.82-.07,1.61,1.61,0,0,0,.48-.18.61.61,0,0,0,.23-.24.78.78,0,0,0,.08-.25h-1l-.3,0-.32-.08a1.71,1.71,0,0,1-.31-.13,1.77,1.77,0,0,1-.25-.18,1.2,1.2,0,0,1-.23-.27,1.52,1.52,0,0,1-.17-.38,1.81,1.81,0,0,1-.07-.52,1.94,1.94,0,0,1,.13-.7,1.61,1.61,0,0,1,.91-.92,1.71,1.71,0,0,1,.65-.12,1.59,1.59,0,0,1,.73.17,1.56,1.56,0,0,1,.56.48,2.22,2.22,0,0,1,.36.81,4.64,4.64,0,0,1,.12,1.1v.63a1.72,1.72,0,0,1-.18.8,1.41,1.41,0,0,1-.54.57,3.26,3.26,0,0,1-1.75.39Zm1.57-6.76.77-.78.79.79-.78.78Zm.88,2.68a1,1,0,0,0-.31.05.84.84,0,0,0-.28.16.8.8,0,0,0-.21.27.93.93,0,0,0-.08.4.85.85,0,0,0,0,.25.54.54,0,0,0,.08.17.53.53,0,0,0,.1.11l.1.07a1,1,0,0,0,.32.11,2.56,2.56,0,0,0,.45,0h.7a3.58,3.58,0,0,0-.09-.79,1.73,1.73,0,0,0-.23-.55A.71.71,0,0,0,108.8,5.93Z"/><path class="cls-2" d="M114,10a4.1,4.1,0,0,1-.74-.07,1.89,1.89,0,0,1-.53-.18,1,1,0,0,1-.35-.29,1.38,1.38,0,0,1-.2-.41,2.41,2.41,0,0,1-.1-.52q0-.29,0-.65V3.53H113V7.9q0,.4,0,.64a.72.72,0,0,0,.13.38.55.55,0,0,0,.32.18,3.11,3.11,0,0,0,.6.05Z"/><path class="cls-2" d="M117.06,6.32l0,.15.06.29.08.39c0,.14.05.28.07.43s0,.28.05.42a3,3,0,0,1,0,.35,1.82,1.82,0,0,1-.14.75,1.55,1.55,0,0,1-.37.52,1.51,1.51,0,0,1-.52.31,1.74,1.74,0,0,1-.58.1h-1.88V9.16h1.88l.19,0a.64.64,0,0,0,.25-.1.69.69,0,0,0,.22-.25.93.93,0,0,0,.09-.45,2.46,2.46,0,0,0,0-.25q0-.15,0-.33c0-.12,0-.24-.06-.36L116.35,7l-.06-.29,0-.19Zm-1.4,5.44-.74.74-.71-.74.72-.73Zm1.74,0-.74.74-.71-.74.72-.73Z"/><path class="cls-2" d="M118,12.54v-.86h.63a2.64,2.64,0,0,0,.81-.11,1.36,1.36,0,0,0,.57-.34,1.4,1.4,0,0,0,.33-.59,3,3,0,0,0,.11-.85V6.94h.86V9.78a3.65,3.65,0,0,1-.17,1.16,2.28,2.28,0,0,1-.51.87,2.2,2.2,0,0,1-.84.54,3.29,3.29,0,0,1-1.16.19Z"/><path class="cls-2" d="M124.22,10.09l-.47,0-.46-.06a3.19,3.19,0,0,1-.43-.11,2,2,0,0,1-.37-.17l-.38-.21.43-.75.38.21a1.5,1.5,0,0,0,.39.15,3.41,3.41,0,0,0,.49.08l.52,0a4,4,0,0,0,.49,0,1.79,1.79,0,0,0,.43-.12.41.41,0,0,0,.22-.17.39.39,0,0,0,0-.28,1.71,1.71,0,0,0-.21-.4l-1.65-2.49.73-.47.12.19.15.23.2.3.28.42.38.57.51.76a3.09,3.09,0,0,1,.21.36,1.94,1.94,0,0,1,.14.38,1.42,1.42,0,0,1,0,.38,1,1,0,0,1-.09.38,1.55,1.55,0,0,1-1.32.79l-.34,0Z"/></g></g></svg>