<?xml version="1.0" encoding="UTF-8" standalone="no"?>
<svg
   xmlns:dc="http://purl.org/dc/elements/1.1/"
   xmlns:cc="http://creativecommons.org/ns#"
   xmlns:rdf="http://www.w3.org/1999/02/22-rdf-syntax-ns#"
   xmlns:svg="http://www.w3.org/2000/svg"
   xmlns="http://www.w3.org/2000/svg"
   xmlns:sodipodi="http://sodipodi.sourceforge.net/DTD/sodipodi-0.dtd"
   xmlns:inkscape="http://www.inkscape.org/namespaces/inkscape"
   viewBox="0 0 371.59 380.02"
   version="1.1"
   id="svg3789"
   sodipodi:docname="Asset 1.svg"
   inkscape:version="0.92.3 (2405546, 2018-03-11)">
  <metadata
     id="metadata3793">
    <rdf:RDF>
      <cc:Work
         rdf:about="">
        <dc:format>image/svg+xml</dc:format>
        <dc:type
           rdf:resource="http://purl.org/dc/dcmitype/StillImage" />
      </cc:Work>
    </rdf:RDF>
  </metadata>
  <sodipodi:namedview
     pagecolor="#ffffff"
     bordercolor="#666666"
     borderopacity="1"
     objecttolerance="10"
     gridtolerance="10"
     guidetolerance="10"
     inkscape:pageopacity="0"
     inkscape:pageshadow="2"
     inkscape:window-width="1366"
     inkscape:window-height="740"
     id="namedview3791"
     showgrid="false"
     inkscape:zoom="1.3999264"
     inkscape:cx="185.795"
     inkscape:cy="190.00999"
     inkscape:window-x="0"
     inkscape:window-y="0"
     inkscape:window-maximized="1"
     inkscape:current-layer="svg3789" />
  <defs
     id="defs3775">
    <style
       id="style3773">.cls-1{fill:#00aeef;}</style>
  </defs>
  <g
     id="Layer_2"
     data-name="Layer 2"
     transform="matrix(-1,0,0,1,371.65809,0)">
    <g
       id="Layer_1-2"
       data-name="Layer 1">
      <path
         class="cls-1"
         d="m 154.77,353.72 c 5.69,-16.29 10.79,-31.39 16.24,-46.36 3.61,-9.93 1.35,-20.1 1.93,-30.15 a 3.43,3.43 0 0 0 -1.05,-2.15 c -12.42,-13.15 -24.88,-26.26 -37.76,-39.82 -5.91,8 -11.9,15.29 -17,23.17 a 53.52,53.52 0 0 1 -23.28,19.95 c -22,10.23 -43.47,21.5 -65.16,32.34 a 3.55,3.55 0 0 1 -2.45,0.38 q 12,-11.11 23.92,-22.23 C 62.46,277.43 74.75,266 87.19,254.69 a 15.08,15.08 0 0 0 5.4,-10.5 c 1.88,-19.36 4.27,-38.66 6.45,-58 a 20,20 0 0 0 -0.28,-2.88 l -38.63,43.45 10.46,-40.13 -29.39,13 c 9.39,-14.54 18.07,-28 26.76,-41.48 L 67.38,157.56 1.21,208.06 0,207.15 55,121.78 25.24,126.4 24.95,125.78 80.84,91.43 v -1.12 l -43,-5.62 71.05,-29 -0.24,-1.25 L 60.12,52.8 59.89,52.12 C 64,50.94 68.1,49.7 72.22,48.59 c 16.35,-4.43 32.59,-9.35 49.11,-13 8.49,-1.87 17.49,-1.45 26.26,-2 a 12.55,12.55 0 0 0 5.86,-1.19 L 114.34,10.85 c 26.27,1.63 51.33,3 76.34,4.88 4.93,0.36 9.79,2.43 14.53,4.15 2.76,1 5.21,2.87 8.31,4.64 3.14,-8.08 6.16,-15.88 9.48,-24.52 8.3,11.71 16.18,22.84 24.45,34.53 l 6.1,-10.74 c 3.86,11.55 8.47,22.11 10.65,33.16 1.19,6 -1.72,12.88 -3,20.92 C 253.72,56.14 239.38,40.16 228.59,20.2 l -8.12,25.27 C 180.7,39.55 143.24,41.76 112.54,71.83 95.61,88.41 80.61,123.31 82,143.49 c 4.41,-32.9 20,-58.54 49.06,-75.11 28.19,-16.06 58,-20.13 90,-11.07 l 8.61,-23.77 16.44,31.15 c 0.54,-2.09 0.82,-3.15 1.23,-4.71 1.56,2.53 3.31,4.59 4.22,7 3.77,9.92 7.45,19.9 10.78,30 0.61,1.89 -0.05,4.65 -1.05,6.51 a 16.29,16.29 0 0 0 -1.45,11.89 q 4,18.51 7.31,37.15 a 7.38,7.38 0 0 1 -1.58,5.59 c -5.19,5.62 -10.89,10.75 -16.08,16.37 -2.35,2.55 -4.4,2.75 -7.39,1.5 a 122.57,122.57 0 0 0 -13.1,-4.7 c -2.69,-0.77 -3.48,-2.14 -2.9,-4.69 0.29,-1.29 0.32,-2.66 0.68,-3.93 2.49,-8.82 1,-17 -3.65,-24.79 -0.69,-1.13 -1.85,-2.57 -3,-2.75 -12.17,-2 -20.62,-8.62 -25.42,-20 -0.1,-0.22 -0.53,-0.3 -1.25,-0.68 -2.72,11.14 -1.21,21.66 3,32 4.51,11.17 13.15,19.08 21.6,27.07 8.81,8.34 17.84,16.44 27.28,25.1 -3.77,3.14 -7,6.19 -10.65,8.63 -1,0.68 -3.42,0 -4.87,-0.77 -18.61,-9.2 -37.17,-18.52 -55.74,-27.81 a 12.63,12.63 0 0 0 -5.34,-1.68 c 1.33,0.94 2.62,1.95 4,2.82 19.13,12 38.32,24 57.39,36.11 2.82,1.8 4.55,1.82 7.28,-0.38 16.31,-13.15 32.83,-26 49.26,-39 5.67,-4.47 18,-5.2 24.27,-1.35 10.47,6.46 20.84,13.09 31.43,19.33 4.84,2.84 10.24,4.72 15.14,7.47 a 12.93,12.93 0 0 1 5.13,5.29 c 2.58,5.38 4.21,11.22 6.87,16.54 2.91,5.8 2.68,11.21 0.41,17.07 -1.89,4.87 -3.1,10 -4.31,14 -7.92,-7.41 -16,-14.77 -23.74,-22.49 -0.91,-0.91 -0.27,-4 0.43,-5.76 3.38,-8.61 0.56,-15.33 -8.12,-18.65 -8.21,-3.15 -16.49,-6.16 -24.61,-9.53 -3,-1.25 -4.59,-0.79 -6.5,1.9 q -24.45,34.62 -49.28,69 a 17.43,17.43 0 0 1 -7.19,5.49 c -7.2,3 -14.57,5.6 -22,7.88 a 10.38,10.38 0 0 1 -7.26,-0.61 c -12.54,-6.83 -24.88,-14 -37.3,-21.09 a 3.38,3.38 0 0 0 -3,-0.3 l 38.66,32.67 c -8.46,14.15 -16.79,28.12 -25.19,42.06 a 6.31,6.31 0 0 1 -2.41,2.4 c -10.73,5.14 -21.5,10.25 -33.33,15.86 z m 90.51,-268.6 c -0.3,9.36 -1.86,18.79 4.82,27.85 1.06,-4.21 3.29,-8 2.5,-11 -1.6,-5.83 -4.78,-11.25 -7.32,-16.85 z"
         id="path3777"
         inkscape:connector-curvature="0"
         style="fill:#00aeef" />
      <path
         class="cls-1"
         d="m 259.69,314.49 c 6.11,-10.62 11.31,-19.88 16.81,-28.95 0.65,-1.08 3.15,-1.92 4.45,-1.58 6.43,1.71 11.25,-0.39 15,-5.53 0.84,-1.16 1.86,-2.49 2,-3.82 1,-10.57 1.88,-21.17 2.83,-32.42 l -26.44,-1.83 c 1,-1.73 1.6,-3 2.4,-4.1 3.39,-4.73 6.85,-9.41 10.25,-14.13 7.32,-10.16 7.2,-9.57 19.22,-7.44 7.94,1.41 12.08,5.11 15.13,12.45 a 24.12,24.12 0 0 1 1,17 c -4.44,16.13 -10.77,31.82 -12,48.77 -0.13,1.81 -1.66,3.93 -3.16,5.16 -5.12,4.24 -10.67,8 -15.75,12.24 a 16.93,16.93 0 0 1 -13.15,4.31 c -5.77,-0.52 -11.6,-0.13 -18.59,-0.13 z"
         id="path3779"
         inkscape:connector-curvature="0"
         style="fill:#00aeef" />
      <path
         class="cls-1"
         d="m 156.58,315.19 c -3.09,9.75 -6.82,19.35 -9.08,29.29 -2.22,9.79 -7,15.42 -16.9,18.61 -14,4.52 -27.39,10.84 -41.06,16.38 a 5.91,5.91 0 0 1 -3.56,0.45 l 69.84,-65.24 z"
         id="path3781"
         inkscape:connector-curvature="0"
         style="fill:#00aeef" />
      <path
         class="cls-1"
         d="m 134.49,251.49 c -3.09,12.82 -6.08,25.67 -9.39,38.43 -0.31,1.22 -2.46,2.52 -3.95,2.8 -19.82,3.84 -39.67,7.51 -59.72,10.71 L 77,296.33 c 11.78,-5.33 23.6,-10.54 35.29,-16.05 a 15.3,15.3 0 0 0 5.81,-5 c 5.39,-7.92 10.45,-16.05 15.63,-24.11 z"
         id="path3783"
         inkscape:connector-curvature="0"
         style="fill:#00aeef" />
      <path
         class="cls-1"
         d="m 254.67,213.41 c 2.54,5.61 5.76,11 7.32,16.89 0.79,3 -1.44,6.75 -2.5,11 -6.68,-9.1 -5.12,-18.52 -4.82,-27.89 z"
         id="path3785"
         inkscape:connector-curvature="0"
         style="fill:#00aeef" />
    </g>
  </g>
  <path
     style="stroke-width:0.71432328"
     d="m 215.86467,352.12641 c 0,-0.33353 -3.7087,-11.17797 -8.24155,-24.09874 -4.53284,-12.92077 -8.54493,-25.58606 -8.91572,-28.14508 -0.37081,-2.55903 -0.46861,-9.10087 -0.21734,-14.53742 l 0.45686,-9.88465 19.28598,-20.32612 c 10.60729,-11.17937 19.51031,-20.07126 19.78447,-19.75977 1.46597,1.66553 13.74593,18.36902 16.4335,22.35321 3.91532,5.80429 8.47701,10.72022 13.12363,14.14272 3.1547,2.32363 75.45936,38.79916 76.01137,38.34546 0.20872,-0.17155 -28.15132,-26.67991 -50.74145,-47.42843 -6.59646,-6.0587 -11.71336,-11.35192 -12.42948,-12.85782 -0.67303,-1.41526 -1.65663,-6.5516 -2.20005,-11.48866 -0.54056,-4.91097 -2.0934,-18.66847 -3.45076,-30.57223 -2.67164,-23.42974 -2.74945,-24.43066 -1.89929,-24.43066 0.31274,0 8.73744,9.20092 18.72155,20.44649 9.98412,11.24558 18.26524,20.10959 18.40249,19.69783 0.13726,-0.41177 -1.87441,-8.84677 -4.47038,-18.74446 -2.59596,-9.89768 -4.61712,-18.09859 -4.49145,-18.22426 0.12566,-0.12567 5.89326,2.29032 12.81689,5.36886 6.92362,3.07854 13.25864,5.81008 14.07782,6.07007 1.06018,0.33649 -2.12094,-5.11296 -11.03799,-18.90879 -12.97955,-20.08103 -13.76946,-21.42138 -12.62417,-21.42138 0.37732,0 15.43928,11.24831 33.47104,24.99625 18.03176,13.74795 32.87416,24.73112 32.9831,24.40708 0.10894,-0.32405 -12.0654,-19.6223 -27.05409,-42.88501 -14.98869,-23.2627 -27.13203,-42.40083 -26.9852,-42.52918 0.14683,-0.12835 6.05298,0.69232 13.12478,1.82371 7.0718,1.1314 13.43986,1.97346 14.15124,1.87126 0.73623,-0.10577 -10.4187,-7.38595 -25.89422,-16.89968 -14.9532,-9.192622 -27.18764,-17.107317 -27.18764,-17.588206 0,-1.000181 -0.61679,-0.894712 23.55019,-4.027076 l 18.19276,-2.358024 -3.19197,-1.317405 C 327.664,82.491725 311.92329,76.056236 294.44023,68.915205 276.95717,61.774174 262.65285,55.610068 262.65285,55.21719 c 0,-0.862034 9.14566,-1.481194 32.14454,-2.176179 l 17.14376,-0.518054 -7.14323,-2.059571 c -44.51819,-12.8357 -56.44673,-15.521434 -72.01816,-16.215035 -6.74959,-0.300648 -12.86867,-0.88067 -13.59794,-1.288937 -1.11618,-0.62486 1.62291,-2.361976 17.31246,-10.979465 10.25114,-5.630439 18.5261,-10.349499 18.3888,-10.4868 -0.26043,-0.260427 -50.98408,2.816312 -67.37677,4.086866 -10.77361,0.835034 -16.80627,2.43707 -24.34699,6.465605 -5.20085,2.778489 -5.20309,2.778946 -5.82799,1.188966 -1.40895,-3.584931 -5.9726,-15.4142146 -7.29987,-18.9217589 L 148.60903,0.55380111 137.14138,16.813484 c -6.3072,8.942826 -11.84853,16.670984 -12.31406,17.173684 -0.66943,0.722888 -1.42502,-0.141553 -3.61366,-4.134237 -2.02025,-3.685515 -2.92414,-4.767871 -3.34849,-4.009614 -1.28012,2.287454 -7.64065,21.191699 -9.12006,27.10592 -1.7016,6.802457 -1.63612,8.774773 0.60554,18.239538 l 1.24503,5.256732 2.34096,-5.576866 c 3.06511,-7.30199 7.08031,-14.352068 16.847,-29.580755 4.40942,-6.875362 9.05774,-14.348969 10.32961,-16.608016 1.27187,-2.259048 2.54123,-4.107359 2.82079,-4.107359 0.27956,0 2.2376,5.384211 4.3512,11.964915 2.11361,6.580703 3.91137,12.066638 3.99504,12.190967 0.0837,0.124328 5.40783,-0.317049 11.83147,-0.98084 14.82866,-1.532328 34.69962,-1.08253 44.96855,1.017907 24.19888,4.949706 45.0691,17.579099 58.42795,35.357069 11.40106,15.172541 20.58528,36.410651 22.87998,52.908991 1.68355,12.10421 0.50484,13.13515 -1.68704,1.47556 C 284.11749,115.44377 275.16858,98.418813 261.59697,84.844784 239.7639,63.007826 204.9861,50.443885 174.40872,53.34687 c -7.39898,0.702452 -18.63633,2.681273 -22.88603,4.030075 -0.92375,0.293187 -1.9716,-1.942222 -5.33639,-11.384288 l -4.18693,-11.749112 -3.30189,6.200883 c -1.81604,3.410485 -5.50254,10.369428 -8.19223,15.464318 l -4.89034,9.263436 -0.79749,-2.368537 -0.79747,-2.368537 -1.97874,3.635591 c -2.51546,4.62174 -12.61071,32.370731 -12.61071,34.663294 0,0.948357 0.64289,3.224087 1.42865,5.057177 2.00547,4.67859 1.80802,9.01799 -1.04363,22.9357 -4.46138,21.77415 -5.25643,27.04832 -4.38612,29.09661 1.27948,3.0113 18.92753,20.47189 20.68875,20.46901 0.84018,-10e-4 5.38494,-1.37508 10.09947,-3.05266 l 8.57188,-3.05015 -0.13323,-3.55484 c -0.0733,-1.95516 -0.34714,-6.60857 -0.60857,-10.3409 -0.40715,-5.81264 -0.26201,-7.41714 1.01177,-11.18541 2.77241,-8.20168 3.73065,-9.24716 10.32124,-11.26085 9.51221,-2.90635 15.05766,-7.31459 19.82254,-15.75751 1.97847,-3.50566 3.47289,-4.94333 3.53998,-3.40557 0.0129,0.29466 0.32323,2.78586 0.68972,5.53601 1.33239,9.9982 -1.55192,23.02136 -7.27743,32.85887 -3.15061,5.41335 -19.46667,22.1769 -36.13098,37.1219 -4.80478,4.30905 -8.73596,8.07897 -8.73596,8.37759 0,1.17969 9.64535,8.43192 11.21432,8.43192 0.90758,0 15.1836,-6.76823 31.72448,-15.0405 16.5409,-8.27228 30.68766,-14.94227 31.43727,-14.82221 1.71359,0.27445 2.108,0.0113 -34.0168,22.69838 -23.32795,14.65042 -28.89501,17.86355 -30.3275,17.50403 -0.96503,-0.2422 -3.69731,-1.96914 -6.07175,-3.83766 -2.37445,-1.86851 -13.74152,-10.87007 -25.26015,-20.00347 -11.518633,-9.13339 -21.965613,-17.20215 -23.215503,-17.93057 -3.49051,-2.03423 -10.50817,-3.05611 -15.1256,-2.20253 -4.87264,0.90076 -4.97139,0.95284 -23.301,12.28826 -8.32855,5.15056 -18.71631,11.08275 -23.08392,13.18266 -4.36763,2.0999 -8.79324,4.71541 -9.83471,5.81223 -1.7280399,1.81989 -7.7233999,15.22616 -10.3155599,23.06675 -1.37479999,4.15839 -0.91312999,7.51702 2.48791,18.09968 l 2.71768,8.45631 11.9114299,-11.19769 c 6.55129,-6.15874 11.91144,-11.61126 11.91144,-12.1167 0,-0.50546 -0.48217,-2.28562 -1.07149,-3.95592 -2.40296,-6.81071 -0.81021,-13.73527 3.87203,-16.83383 2.2125,-1.46417 22.35996,-9.71521 29.0894,-11.91307 3.43599,-1.1222 5.36779,-0.20506 8.23549,3.90988 1.44292,2.07047 4.31607,6.17532 6.38478,9.12191 2.06872,2.94658 3.13828,4.83292 2.3768,4.19185 -2.31267,-1.94696 -4.07181,-2.10818 -10.59378,-0.97084 -7.37578,1.28623 -10.79492,2.87399 -13.96571,6.48533 -3.45418,3.93408 -5.18121,8.47029 -5.55119,14.58065 -0.3004,4.96127 -0.007,6.41384 3.96276,19.64389 5.70663,19.01677 6.50147,22.17467 7.95793,31.61694 0.85736,5.55826 1.65908,8.51209 2.59423,9.55805 2.4242,2.71141 19.52525,15.66847 22.09897,16.74384 1.9301,0.80645 5.18255,1.00221 14.1462,0.85145 l 11.639853,-0.19577 -8.12039,-13.92755 c -4.466213,-7.66016 -8.442703,-14.24979 -8.836633,-14.64363 -0.39393,-0.39384 -3.24338,-0.71607 -6.33212,-0.71607 -5.08727,0 -5.90243,-0.20173 -8.65975,-2.14297 -5.26471,-3.70654 -5.90595,-5.76933 -7.39581,-23.79146 -0.72261,-8.7411 -1.11655,-16.09019 -0.87543,-16.33131 0.61826,-0.61826 25.73526,-2.29262 26.28511,-1.75223 0.24861,0.24433 5.181083,7.03388 10.961033,15.08787 5.77996,8.054 11.20185,15.23018 12.04864,15.94708 3.68673,3.12123 24.94453,11.19721 29.47357,11.19721 2.99338,0 3.57193,-0.28943 25.0176,-12.51551 9.86289,-5.62279 17.60627,-9.60105 18.45206,-9.47998 1.08571,0.15542 -3.37008,4.28674 -17.4722,16.19991 -10.41127,8.79521 -19.00668,16.18845 -19.10093,16.42944 -0.0942,0.24098 5.69178,10.19818 12.85782,22.12709 l 13.02918,21.68895 16.36903,7.77688 c 9.00297,4.2773 16.47657,7.7769 16.60802,7.7769 0.13144,0 0.23898,-0.27289 0.23898,-0.60643 z M 119.91864,108.90724 c -0.66107,-2.09714 -1.20194,-4.6245 -1.20194,-5.61634 0,-1.89893 2.82904,-9.214116 5.87435,-15.189623 l 1.80736,-3.546408 0.49554,5.689378 c 0.28984,3.327639 0.16747,7.721713 -0.29479,10.585233 -0.7606,4.71166 -3.72307,11.89073 -4.90674,11.89073 -0.31452,0 -1.11272,-1.71584 -1.77378,-3.81297 z"
     id="path3795"
     inkscape:connector-curvature="0" />
  <path
     style="fill:#ffffff;stroke-width:0.71432328"
     d="m 215.15035,351.52782 c 0,-0.26988 -3.77699,-11.60083 -8.3933,-25.1799 l -8.3933,-24.6892 0.0129,-12.95326 0.0128,-12.95326 7.84474,-8.41375 c 4.31461,-4.62757 13.17073,-13.89016 19.68028,-20.58354 l 11.83555,-12.16978 6.40137,8.53548 c 3.52075,4.69452 8.24359,11.12073 10.49519,14.28048 6.3643,8.93123 11.15247,13.18382 20.50699,18.21317 12.74214,6.85068 65.1235,32.94856 65.45867,32.61339 0.28431,-0.28431 -9.03571,-9.09264 -43.05738,-40.69346 -8.30537,-7.71439 -15.7556,-15.08585 -16.55605,-16.38102 -1.88733,-3.05376 -2.45201,-6.62145 -5.85606,-36.99905 -2.96246,-26.43687 -3.27005,-30.7159 -2.20794,-30.7159 0.35119,0 6.35009,6.34855 13.33087,14.10789 15.81969,17.58404 23.1754,25.44972 23.1754,24.78216 0,-0.28395 -1.97442,-8.35459 -4.38759,-17.93476 -2.41318,-9.58016 -4.22137,-17.58471 -4.01821,-17.78787 0.20317,-0.20316 5.92622,2.05479 12.71789,5.01767 6.79168,2.96288 12.62619,5.38705 12.96559,5.38705 0.98089,0 -1.1119,-3.62158 -11.55794,-20.00105 -12.31231,-19.30579 -12.63298,-19.89955 -10.2543,-18.98676 0.64901,0.24905 15.11704,10.94174 32.15116,23.76153 17.03413,12.81979 31.15133,23.12853 31.37156,22.90829 0.37199,-0.37199 -6.14496,-10.77078 -36.8226,-58.75612 -14.58793,-22.81813 -15.26454,-23.92573 -14.86175,-24.32852 0.17795,-0.17794 5.69807,0.50234 12.26694,1.51176 6.56887,1.00941 12.28413,1.72172 12.70057,1.58291 0.87147,-0.29049 -5.94526,-4.81199 -29.05687,-19.27329 -21.34478,-13.355724 -21.76768,-13.639068 -21.77807,-14.591025 -0.0124,-1.134452 0.53349,-1.235715 20.98653,-3.893062 10.06082,-1.307147 18.28841,-2.551741 18.28353,-2.765767 -0.005,-0.214025 -5.87126,-2.769081 -13.0364,-5.677905 -17.40254,-7.064891 -45.56966,-18.771629 -50.86697,-21.141179 -3.47724,-1.55541 -4.04303,-2.03327 -3.05926,-2.583817 1.40187,-0.784526 22.67838,-2.017426 35.24364,-2.042247 4.74728,-0.0094 8.85912,-0.244762 9.13744,-0.523078 0.90844,-0.908439 -44.00986,-13.216907 -56.69946,-15.536732 -3.33946,-0.610497 -11.81437,-1.573532 -18.83314,-2.140079 -7.01876,-0.566546 -12.9655,-1.236225 -13.21498,-1.488177 -0.81788,-0.826002 3.22758,-3.424024 18.86676,-12.11637 10.37984,-5.769166 14.93297,-8.647341 13.92542,-8.802674 -0.82336,-0.126937 -10.087,0.280662 -20.58585,0.905776 -51.70659,3.07867 -56.10614,3.665591 -67.17151,8.961002 l -5.9376,2.841484 -1.62883,-3.738602 c -0.89586,-2.056231 -3.01647,-7.371826 -4.71248,-11.8124339 l -3.08363,-8.0738316 -2.56491,3.6904329 C 134.83359,20.860441 125.2233,33.820564 124.35684,33.987968 c -0.61197,0.118235 -1.90842,-1.317885 -3.16031,-3.500762 -1.16747,-2.03568 -2.44411,-3.733122 -2.83699,-3.772092 -0.39288,-0.03897 -2.78785,6.036609 -5.32216,13.501287 -4.43884,13.074373 -4.6057,13.821027 -4.54975,20.358214 0.0319,3.732339 0.50835,8.554021 1.05866,10.714849 l 1.00057,3.928778 3.98449,-8.272265 c 2.19147,-4.549746 7.3059,-13.55022 11.36539,-20.001052 4.0595,-6.450833 9.3462,-14.922459 11.74822,-18.825836 2.40202,-3.903377 4.71896,-7.214266 5.14875,-7.35753 0.45121,-0.150402 2.42319,4.660012 4.66633,11.382989 l 3.88489,11.64347 4.57984,-0.167801 c 2.51892,-0.09229 13.90176,-0.248376 25.29522,-0.346857 19.3406,-0.167174 21.21108,-0.07018 28.18482,1.461477 31.13364,6.837966 54.09016,24.810336 68.59083,53.698912 6.8047,13.556501 11.22998,27.832241 11.93468,38.500771 0.53596,8.11397 -0.56509,6.97286 -2.60448,-2.69924 -2.03865,-9.66863 -5.03611,-18.11547 -9.41884,-26.54232 -13.50316,-25.963032 -39.97062,-44.86804 -73.17376,-52.266071 -6.00906,-1.338886 -9.25134,-1.578701 -21.37028,-1.580649 -12.78113,-0.0021 -15.2273,0.198668 -23.21551,1.904968 -6.96051,1.486781 -9.11126,1.716898 -9.75559,1.043784 -0.63267,-0.660951 -6.39906,-15.450799 -8.18662,-20.997373 -0.15017,-0.465941 -3.94587,6.10916 -8.43489,14.611335 l -8.16186,15.458499 -0.83524,-2.467838 -0.83524,-2.467839 -1.46096,2.857294 c -1.6617,3.249891 -10.21672,26.017925 -11.81666,31.448411 -0.96954,3.290844 -0.9467,3.945229 0.27437,7.857559 1.93304,6.19352 1.68804,10.62547 -1.48573,26.87673 -4.01723,20.57019 -4.44186,23.98709 -3.2625,26.25321 0.5309,1.02012 5.13741,5.94691 10.2367,10.94843 l 9.27143,9.09365 3.76824,-1.11904 c 2.07253,-0.61548 6.20815,-2.01945 9.19027,-3.11993 l 5.42201,-2.00088 -0.25061,-10.97399 c -0.22787,-9.9778 -0.10522,-11.36307 1.35113,-15.25994 2.27267,-6.08113 3.7904,-7.92874 7.65897,-9.32362 11.5336,-4.15865 16.61736,-7.87332 21.6237,-15.8003 1.60228,-2.53702 3.29695,-4.48601 3.76593,-4.3311 1.47275,0.48645 2.20211,10.23718 1.28579,17.18936 -0.97275,7.38032 -2.82191,13.18557 -6.40988,20.12321 -2.15402,4.16498 -5.03296,7.45963 -17.23417,19.72276 -8.05649,8.09738 -17.6977,17.47822 -21.42492,20.84631 l -6.77677,6.12382 1.7765,1.90933 c 3.52074,3.784 7.80148,6.23145 10.09638,5.77247 1.16837,-0.23367 14.91306,-6.67861 30.54376,-14.32209 28.12347,-13.75251 32.21154,-15.54494 32.21154,-14.12335 0,1.07174 -53.31605,34.71124 -60.94412,38.4524 l -3.96578,1.945 -3.02913,-2.00458 c -1.66603,-1.10253 -10.60718,-8.00399 -19.86923,-15.33658 -29.596583,-23.43105 -32.065323,-25.2305 -36.023353,-26.2572 -4.62625,-1.20004 -9.38307,-1.19764 -13.38352,0.006 -1.73217,0.5215 -10.06048,5.12381 -18.50735,10.22736 -8.44687,5.10356 -18.89385,11.15372 -23.21551,13.44479 -4.32165,2.29108 -8.87509,4.91693 -10.11874,5.83523 -3.7904599,2.79884 -12.38243989,22.51052 -12.38243989,28.40772 0,2.95184 4.47385999,19.42801 5.58520999,20.56898 0.2676,0.27473 5.5834499,-4.36683 11.8130099,-10.31458 l 11.32648,-10.8141 -0.56115,-2.9004 c -0.30863,-1.59522 -0.58386,-5.3688 -0.61163,-8.38574 -0.0812,-8.82912 0.92285,-9.67031 21.14126,-17.71138 6.94093,-2.76017 13.62553,-5.01873 14.85468,-5.01873 1.37055,0 2.84936,0.62156 3.82388,1.60722 2.34444,2.37126 11.40298,15.57549 10.97732,16.00115 -0.20101,0.201 -1.08248,-0.0183 -1.95884,-0.48729 -2.00381,-1.07241 -8.3942,-0.4139 -14.60782,1.50529 -8.30403,2.56485 -13.20842,10.2607 -13.20842,20.72634 0,3.82517 0.87387,7.92365 3.98056,18.66896 4.44877,15.38724 6.9353,25.50033 8.18591,33.29334 1.0401,6.48132 2.16319,7.86164 13.04492,16.03282 11.61818,8.72418 10.59508,8.37254 24.36009,8.37254 h 11.783293 l -7.88305,-13.39356 c -4.335683,-7.36646 -8.188103,-13.7629 -8.560933,-14.2143 -0.37718,-0.45666 -3.32988,-0.93196 -6.6563,-1.07149 -5.43747,-0.22806 -6.22674,-0.4515 -8.72289,-2.46945 -5.26136,-4.25342 -6.01775,-7.03475 -7.50287,-27.58891 -0.71487,-9.89377 -0.7041,-12.18821 0.0594,-12.66008 0.51288,-0.31698 4.19081,-0.7817 8.17317,-1.03271 3.98237,-0.25102 9.54157,-0.64627 12.35378,-0.87836 l 5.11312,-0.42197 4.530243,6.23919 c 2.49164,3.43156 7.79404,10.63804 11.7831,16.0144 l 7.25286,9.7752 6.31928,2.92171 c 8.48868,3.92472 19.21869,7.45226 22.87335,7.51971 2.54361,0.0469 5.32597,-1.26203 18.92957,-8.90554 22.10272,-12.41896 24.87668,-13.75897 24.87668,-12.01711 0,0.37216 -7.95578,7.49051 -17.6795,15.81856 -9.72373,8.32803 -17.94794,15.37985 -18.27604,15.67069 -0.32808,0.29085 -0.0414,1.61044 0.63717,2.93244 2.50052,4.87179 23.39118,39.58777 24.51389,40.73702 0.89658,0.91779 31.02578,15.59802 32.01284,15.59802 0.12173,0 0.22134,-0.22082 0.22134,-0.4907 z M 119.85533,109.37851 c -0.62624,-1.83794 -1.13863,-4.40216 -1.13863,-5.69828 0,-2.62176 2.3569,-9.325738 5.36691,-15.265722 1.90483,-3.759005 1.99877,-3.83393 2.65486,-2.117669 1.00976,2.641418 0.20867,16.230171 -1.17804,19.982771 -1.37603,3.72368 -3.0363,6.4406 -3.93575,6.4406 -0.34689,0 -1.1431,-1.50376 -1.76935,-3.3417 z"
     id="path3797"
     inkscape:connector-curvature="0" />
  <path
     style="fill:#ffffff;stroke-width:0.71432328"
     d="m 307.29805,302.56175 c -0.19644,-0.18444 -11.52438,-5.40318 -25.17319,-11.5972 -20.36562,-9.24219 -25.23461,-11.72707 -27.15008,-13.85598 -1.28373,-1.42677 -5.51702,-7.49826 -9.40732,-13.4922 -3.89031,-5.99393 -7.21999,-10.75136 -7.39929,-10.57205 -0.72704,0.72703 8.59764,36.50738 9.85614,37.81968 1.34053,1.39782 9.78589,3.17957 41.05849,8.66227 7.85756,1.37758 15.25081,2.69958 16.42944,2.93776 1.17863,0.23819 1.98225,0.28216 1.78581,0.0977 z"
     id="path3799"
     inkscape:connector-curvature="0" />
  <path
     style="fill:#ffffff;stroke-width:0.71432328"
     d="m 250.76709,347.72094 c -18.92161,-17.6859 -34.53886,-32.02025 -34.705,-31.85412 -0.16613,0.16614 1.4481,5.71631 3.58718,12.33371 2.13909,6.61741 4.29567,13.7996 4.7924,15.96043 1.19975,5.21895 3.1578,9.05422 6.32094,12.38095 3.15987,3.32328 4.74334,4.18156 13.57699,7.35909 7.34839,2.64326 15.60203,5.94362 30.33259,12.12898 5.03913,2.11593 9.46261,3.84714 9.82995,3.84714 0.36733,0 -14.81344,-14.47028 -33.73505,-32.15618 z"
     id="path3801"
     inkscape:connector-curvature="0" />
</svg>
